<svg xmlns="http://www.w3.org/2000/svg" viewBox="0 0 32 32" fill="none" stroke="#303" stroke-linecap="round" stroke-linejoin="round">
	<style>
		@keyframes rotate {
			to {
				transform: rotate(-7.5deg);
			}
		}
		@keyframes translate {
			to {
				transform: translate(-3px, -3px);
			}
		}
		svg > path:nth-of-type(1) {
			transform: rotate(15deg);
			transform-origin: 28px 26px;
			animation: 1s ease infinite alternate rotate;
		}
		svg > path:nth-of-type(n + 2) {
			animation: 1s ease -1.75s infinite alternate translate;
		}
	</style>
	<path d="
		M15,19
		L17,17
		L29,29
		L27,31
		Z
		M17,21
		L19,19
	"/>
	<path d="
		M18,12
		L14,11
		L18,10
		L19,6
		L20,10
		L24,11
		L20,12
		L19,16
		Z
	"/>
	<path d="
		M8,16
		L4,15
		L8,14
		L9,10
		L10,14
		L14,15
		L10,16
		L9,20
		Z
	"/>
	<path d="
		M10,22
		L14,22
		M12,20
		L12,24
	"/>
	<path d="
		M22,16
		L26,16
		M24,14
		L24,18
	"/>
	<path d="
		M12,6
		L16,6
		M14,4
		L14,8
	"/>
</svg>
