<svg xmlns="http://www.w3.org/2000/svg" viewBox="0 0 32 32" fill="none" stroke="#303" stroke-linecap="round" stroke-linejoin="round">
	<style>
		@keyframes rotate {
			to {
				transform: rotate(1turn);
			}
		}
		svg > path:nth-of-type(1) {
			transform-origin: 12px 20px;
			animation: 6s linear infinite rotate;
		}
		svg > path:nth-of-type(2) {
			transform-origin: 23px 9px;
			animation: 3s linear infinite reverse rotate;
		}
	</style>
	<path d="
		M4,22
		Q3,22,1,21
		L1,19
		Q3,18,4,18
		L4,18
		L5,16
		Q4,15,4,13
		L5,12
		Q7,12,8,13
		L10,12
		Q10,11,11,9
		L13,9
		Q14,11,14,12
		L16,13
		Q17,12,19,12
		L20,13
		Q20,15,19,16
		L20,18
		Q21,18,23,19
		L23,21
		Q21,22,20,22
		L19,24
		Q20,25,20,27
		L19,28
		Q17,28,16,27
		L14,28
		Q14,29,13,31
		L11,31
		Q10,29,10,28
		L8,27
		Q7,28,5,28
		L4,27
		Q4,25,5,24
		Z
	"/>
	<circle cx="12" cy="20" r="4"/>
	<path d="
		M19,11
		Q18,11,16,10
		L16,8
		Q18,7,19,7
		L21,5
		Q21,4,22,2
		L24,2
		Q25,4,25,5
		L27,7
		Q28,7,30,8
		L30,10
		Q28,11,27,11
		L25,13
		Q25,14,24,16
		L22,16
		Q21,14,21,13
		Z
	"/>
	<circle cx="23" cy="9" r="1"/>
</svg>
