<svg xmlns="http://www.w3.org/2000/svg" viewBox="0 -2 32 32" fill="none" stroke="#303" stroke-linecap="round" stroke-linejoin="round">
	<style>
		@keyframes translate {
			to {
				transform: translate(0, -3px);
			}
		}
		svg > g {
			transform-origin: 16px 12px;
		}
		svg > g > path {
			animation: 1s ease-out infinite alternate translate;
		}
		svg > g:nth-of-type(1) {
			transform: rotate(-120deg);
		}
		svg > g:nth-of-type(2) {
			transform: rotate(-60deg);
		}
		svg > g:nth-of-type(4) {
			transform: rotate(60deg);
		}
		svg > g:nth-of-type(5) {
			transform: rotate(120deg);
		}
	</style>
	<path d="
		M12,23
		Q12,19,10,17
		A8,8,0,1,1,22,17
		Q20,19,20,23
		Z
		M13,25
		L19,25
		M13,27
		L19,27
		M14,29
		L18,29
		M14,21
		L13,15
		C11,11,9,15,13,15
		C24,11,8,11,19,15
		C23,15,21,11,19,15
		L18,21
		Z
	"/>
	<g>
		<path d="
			M16,3
			L16,2
		"/>
	</g>
	<g>
		<path d="
			M16,3
			L16,2
		"/>
	</g>
	<g>
		<path d="
			M16,3
			L16,2
		"/>
	</g>
	<g>
		<path d="
			M16,3
			L16,2
		"/>
	</g>
	<g>
		<path d="
			M16,3
			L16,2
		"/>
	</g>
</svg>
