<svg xmlns="http://www.w3.org/2000/svg" viewBox="0 0 32 32" fill="none" stroke="#303" stroke-linecap="round" stroke-linejoin="round">
	<style>
		@keyframes translate {
			to {
				transform: translate(0, -3px);
			}
		}
		svg > g {
			transform-origin: 16px 14px;
		}
		svg > g > path {
			animation: 1s ease-out infinite alternate translate;
		}
		svg > g:nth-of-type(1) {
			transform: rotate(-120deg);
		}
		svg > g:nth-of-type(2) {
			transform: rotate(-60deg);
		}
		svg > g:nth-of-type(4) {
			transform: rotate(60deg);
		}
		svg > g:nth-of-type(5) {
			transform: rotate(120deg);
		}
	</style>
	<path d="
		M12,25
		Q12,21,10,19
		A8,8,0,1,1,22,19
		Q20,21,20,25
		Z
		M13,27
		L19,27
		M13,29
		L19,29
		M14,31
		L18,31
		M14,23
		L13,17
		C11,13,9,17,13,17
		C24,13,8,13,19,17
		C23,17,21,13,19,17
		L18,23
		Z
	"/>
	<g>
		<path d="
			M16,5
			L16,4
		"/>
	</g>
	<g>
		<path d="
			M16,5
			L16,4
		"/>
	</g>
	<g>
		<path d="
			M16,5
			L16,4
		"/>
	</g>
	<g>
		<path d="
			M16,5
			L16,4
		"/>
	</g>
	<g>
		<path d="
			M16,5
			L16,4
		"/>
	</g>
</svg>
